<svg xmlns="http://www.w3.org/2000/svg" xmlns:xlink="http://www.w3.org/1999/xlink" version="1.1" x="0px" y="0px" viewBox="0 0 100 125" style="enable-background:new 0 0 100 100;" xml:space="preserve"><path d="M86.1,7.7c-0.3-1.1-1.2-1.9-2.2-2.1c-1.1-0.3-2.2,0.1-2.9,0.9c-0.1,0.1-9.4,10.2-27.4,12c-0.1,0-0.1,0-0.2,0  c-0.3,0-6.6,1.1-13.7,4.6C30,28,23.6,35.3,21.2,44.2c-1.4,5.4-1.3,11.1,0.3,16.7c2.2,7.3,6.3,13.1,11.8,16.9  C30.7,81,23.2,88.7,11.1,91.5c-1.1,0.3-1.8,1.3-1.5,2.4c0.2,0.9,1,1.6,2,1.6c0.2,0,0.3,0,0.5-0.1c14-3.3,22.2-12.3,24.9-15.6  c2.1,1,4.4,1.8,6.8,2.4c2.5,0.6,5.1,0.8,7.7,0.8c8.7,0,17.3-3.2,23.9-9.1C86.1,64.4,96.6,45.2,86.1,7.7z M71.3,69.4  c-7.1,6.3-17,8.9-26.3,6.8c-11.1-2.4-15.8-10.6-17.7-17.1c-1.3-4.5-1.4-9.1-0.3-13.3c2-7.3,7-13,15.1-17.2c5.9-3,11.3-4,12-4.1  c13.4-1.3,22.5-6.8,27.3-10.4C89.1,45.4,80.3,61.4,71.3,69.4z M80.4,23c-0.1,0.7-2.6,18.2-19.6,24.8c-0.1,0-0.1,0-0.2,0.1  c-0.5,0.2-13.6,3.9-18.5,21.3c-0.3,0.9-1.1,1.5-1.9,1.5c-0.2,0-0.4,0-0.6-0.1C38.6,70.2,38,69,38.3,68c5.4-19,19.6-23.6,21.2-24  c14.7-5.7,16.9-20.9,17-21.5c0.1-1.1,1.2-1.9,2.3-1.7C79.8,20.8,80.6,21.9,80.4,23z"/></svg>