<svg xmlns="http://www.w3.org/2000/svg" viewBox="0 0 100 125" x="0px" y="0px"><path d="M70.02,41.67c-.21-.24-5.25-5.85-11.73-5.46-6.57,.39-7.91,9.6-7.93,9.73v.19s-.02,.03-.04,.04c-.05,.03-.14,.04-.23,.05h-.06l-.05-.07h0c.1-.6,.21-1.11,.32-1.52,.36-1.35,.42-5.09,.36-8.95,.02,0,.04,.02,.07,.02,.18,0,.4-.16,.87-.52,.8-.6,2.3-1.72,5.3-3.45,4.3-2.48,6.19-6.64,6.53-9.7,.05-.43,.17-1.87-.31-2.31-.2-.19-.45-.27-.72-.24-.82,.08-1.71,1.19-2.39,2.14-.5,.69-2.1,1.54-4.13,2.61-.8,.43-1.68,.89-2.6,1.4-1.68,.94-2.42,3.08-2.73,5.07-.08-2.57-.18-4.67-.22-5.41,.69-.14,2.2-1.33,5.31-9.44,1.65-4.3,.99-9.75-.65-12.14-.54-.79-1.18-1.2-1.84-1.2-2.87,0-5.57,7.28-6.59,11.14-1.07,4.01,2.79,10.74,3.22,11.47,.06,1.13,.79,16.43,0,19.38-.03,.13-.07,.27-.1,.41-.08-.18-.19-.35-.31-.53-.27-.4-.49-.83-.69-1.27-.45-1-.86-2.02-1.28-3.04h0c1.18-1.73,.45-4.5-.1-6.03-.77-2.11-2.16-4.42-3.15-4.64-.61-.13-1.87-2.3-2.8-3.88-1.28-2.2-2.04-3.45-2.66-3.54-.15-.02-.3,.02-.41,.13-1.04,.96-.54,7.47,1.16,10.98,1.63,3.36,6.5,6.81,7.48,7.17,.39,.92,.77,1.84,1.16,2.76,.18,.41,.36,.82,.59,1.21,.16,.28,.52,.66,.6,1.02-1.9-2.14-7.47-7.08-15.67-3.19l-.15,.07v.17c0,.08,.06,2.06,2.06,3.6,1.52,1.17,3.69,1.76,6.49,1.76,2.1,0,4.57-.34,7.37-1-.67,4.3-1.22,12.37-1.54,22.88,0,.15,0,.29,0,.44-2.2-7.42-10.37-13.38-10.81-13.69l-.32-.23-.09,.39c-.04,.16-.89,3.98,.9,11.25,.06,.25,.13,.5,.21,.74-1.35-.16-5.57-.45-7.74,1.53l-.13,.12,.06,.17c.03,.08,2.65,6.74,13.17,6.74,1.4,0,2.95-.12,4.65-.39,.19,.24,.38,.48,.54,.74,.06,.09,.12,.19,.21,.28,.79,4.61,2.18,9,3.49,12.48-1.18-1.32-2.83-3.62-2.94-3.78-.24-.49-4.25-8.39-14.44-5.67l-.23,.06,.04,.24c0,.05,.9,5.31,6.63,6.06,1.13,.15,2.08,.21,2.89,.21,1.73,0,2.79-.26,3.52-.44,.62-.15,.92-.21,1.19-.1,.36,.5,2.74,3.81,3.8,4.6,1.47,3.73,2.73,6.15,2.76,6.21l.47-.25c-.04-.07-1.71-3.28-3.44-8.01,1.05-.13,2.25-.88,7.95-7.13,2.35-2.58,3.33-4.85,2.93-6.74-.42-1.96-2.17-2.74-2.25-2.77l-.1-.04-.1,.03c-8.4,2.96-9.11,11.46-9.04,14.93-1.76-5.16-3.4-11.69-3.23-17.86v.05l.06,.07c.36,.42,.82,.64,1.35,.64,.23,0,.48-.04,.73-.12,3.18-1,7.94-8.27,8.11-10,.09-.96,1.09-2.4,1.97-3.67,.91-1.31,1.69-2.45,1.62-3.16-.04-.42-.31-.8-.76-1.07-1.09-.66-3.52-.87-7.09,.53-3.35,1.32-4.08,5.2-4.6,8.02-.2,1.07-.37,2-.65,2.45-.29,.46-.47,1.12-.59,1.83,.33-8.37,.81-14.8,1.38-18.45l.26-.02c.13-.01,.29-.03,.44-.11,.07-.04,.12-.09,.17-.14,.1,.05,.2,.07,.29,.07,.36,0,.63-.32,.89-.64,.7-.85,2-2.44,6.9-1.6,7.73,1.32,11.04-2.14,11.18-2.29l.16-.18-.16-.18Z"/></svg>