<svg xmlns="http://www.w3.org/2000/svg" data-name="Layer 1" viewBox="0 0 64 80" x="0px" y="0px"><title>Fruit and vegetable line</title><path d="M18.766,12.131C-.095,21.88,3.905,41.305,4.612,44.16A59.067,59.067,0,0,0,1.523,54.415a1,1,0,0,0,.764,1.191.987.987,0,0,0,.214.023,1,1,0,0,0,.977-.786A60.672,60.672,0,0,1,6.171,45.6a36.313,36.313,0,0,0,16.313,4.168c18.456,0,29.223-16.6,29.359-16.816,6.986-11.049,9.758-13.386,9.778-13.4a1,1,0,0,0,0-1.569C61.406,17.814,39.944,1.183,18.766,12.131ZM50.153,31.887c-.163.257-16.4,25.284-43.1,11.932A43.418,43.418,0,0,1,14.733,34.6c1.7,1.859,6.3,5.778,15.34,6.521.028,0,.055,0,.083,0a1,1,0,0,0,.081-2c-8.29-.68-12.519-4.276-14-5.859a52.634,52.634,0,0,1,8.9-6.143c1.751,1.294,7.288,4.779,17.423,5.866a.977.977,0,0,0,.108.006,1,1,0,0,0,.105-1.994c-8.339-.895-13.415-3.519-15.622-4.932a58.479,58.479,0,0,1,10.8-4.061,40.152,40.152,0,0,0,10.6,3.249,1.017,1.017,0,0,0,.134.009,1,1,0,0,0,.13-1.991,34.84,34.84,0,0,1-7.591-2.063A71.368,71.368,0,0,1,53.767,19.7a1,1,0,0,0,.965-1.034A.979.979,0,0,0,53.7,17.7a72.478,72.478,0,0,0-14.029,1.82,23.98,23.98,0,0,1,2.353-4.569,1,1,0,1,0-1.593-1.208,31.45,31.45,0,0,0-3.157,6.382A60.412,60.412,0,0,0,26.447,24.2c.445-2.5,1.506-7.053,3.679-10.118a1,1,0,0,0-1.632-1.157C25.5,17.149,24.469,23.62,24.238,25.352a55.176,55.176,0,0,0-8.586,5.818,28.368,28.368,0,0,1,1.79-10.94,1,1,0,0,0-1.855-.748,30.693,30.693,0,0,0-1.85,13.355,48.182,48.182,0,0,0-7.606,8.712c-.878-5.653-1.4-19.913,13.553-27.642,17.612-9.1,35.573,2.054,39.779,4.98C58.116,20.344,55.2,23.9,50.153,31.887Z"/><text x="0" y="79" fill="#000000" font-size="5px" font-weight="bold" font-family="'Helvetica Neue', Helvetica, Arial-Unicode, Arial, Sans-serif">Created by Serena</text><text x="0" y="84" fill="#000000" font-size="5px" font-weight="bold" font-family="'Helvetica Neue', Helvetica, Arial-Unicode, Arial, Sans-serif">from the Noun Project</text></svg>