<svg xmlns="http://www.w3.org/2000/svg" xmlns:xlink="http://www.w3.org/1999/xlink" version="1.1" x="0px" y="0px" viewBox="0 0 100 125" enable-background="new 0 0 100 100" xml:space="preserve"><g><path fill="none" d="M33.99,45.158c-1.74-2.644-3.419-5.196-4.366-8.344c0.029,0.807,0.081,1.663,0.165,2.552   c0.241,2.829,1.181,9.948,4.668,15.021c2.965,4.317,4.653,7.559,5.6,9.712c-0.208-2.799-0.539-6.334-0.986-8.323   C38.111,51.42,36.016,48.237,33.99,45.158z"/><path fill="none" d="M40.461,65.064c0.13,0.326,0.239,0.615,0.328,0.869c0.033-0.316,0.066-0.635,0.099-0.955   c-0.086,0.066-0.172,0.095-0.312,0.102C40.537,65.079,40.498,65.073,40.461,65.064z"/><path fill="none" d="M37.023,35.703c-2.195-2.477-4.008-4.525-4.838-9.235c-0.349,3.124-0.408,7.77,1.585,10.186   c4.059,5.301,6.427,10.691,7.918,14.832c-0.076-3.352-0.344-9.994-1.712-12.148C38.963,37.893,37.977,36.78,37.023,35.703z"/><path fill="none" d="M48.614,70.19c3.598-1.776,6.505-5.823,8.876-9.549c0.753-1.215,1.431-2.361,1.998-3.349   c-1.824,1.655-4.066,3.301-6.261,4.911l-0.982,0.722c-4.251,3.063-7.318,5.44-8.209,6.362c-0.765,0.865-1.785,3.038-2.959,6.31   C42.529,74.028,44.863,72.135,48.614,70.19z"/><path fill="none" d="M50.349,59.096c3.108-1.271,6.221-3.749,9.281-7.385c-1.438,0.723-3.003,1.142-4.617,1.572   c-3.215,0.859-6.54,1.746-9.217,5.318c-0.84,1.126-1.942,3.398-2.844,5.414C44.545,62.312,46.916,60.447,50.349,59.096z"/><path fill="none" d="M39.855,74.94c0.002-0.013,0.003-0.024,0.004-0.036c-0.004,0.005-0.009,0.011-0.013,0.016   C39.848,74.926,39.852,74.933,39.855,74.94z"/><path fill="none" d="M33.011,62.149c-0.934-1.274-1.816-2.477-2.489-3.564c-1.115-1.793-2.932-6.191-4.099-10.812   c-0.43-1.625-0.785-3.323-1.042-4.914c-0.099,1.851-0.101,3.648-0.005,5.379c0.238,5.748,1.766,13.232,5.343,17.019   c4.247,4.431,6.624,6.944,7.952,8.369c-0.212-0.768-0.421-1.657-0.625-2.657C37.476,68.245,35.104,65.007,33.011,62.149z"/><path fill="none" d="M39.637,77.451c0.064-0.102,0.132-0.207,0.206-0.314c-0.063-0.05-0.112-0.115-0.145-0.188   C39.678,77.116,39.657,77.283,39.637,77.451z"/><path fill="none" d="M42.343,53.384c0.017-0.111,0.035-0.223,0.052-0.334c-0.047,0.02-0.099,0.033-0.152,0.037   C42.277,53.187,42.311,53.286,42.343,53.384z"/><path fill="none" d="M55.931,16.629c-1.599,1.878-2.997,5.313-3.693,7.21c2.031-2.351,5.242-5.747,6.94-7.439   c0.964-1.156,4.404-4.805,8.323-7.367c1.512-1.053,3.071-1.923,4.388-2.586c-2.214,0.554-4.934,1.607-7.486,3.133   C60.488,11.803,57.193,15.012,55.931,16.629z"/><path fill="none" d="M52.473,26.055c1.433-0.721,3.334-1.3,5.571-1.123c2.857,0.172,5.747-0.576,8.609-2.206   c-1.45,0.204-2.737,0.054-4-0.091c-0.809-0.093-1.604-0.184-2.431-0.184c-1.661,0-3.451,0.369-5.747,1.836   C53.779,24.76,53.085,25.409,52.473,26.055z"/><path fill="none" d="M60.893,44.214c-1.513,0.577-3.113,0.838-4.683,1.094c-3.255,0.531-6.621,1.081-9.42,4.36   c-1,1.172-2.253,3.892-3.21,6.247c1.446-1.429,3.765-3.137,7.388-4.537C54.942,49.761,58.529,46.594,60.893,44.214z"/><path fill="none" d="M46.718,36.524c-0.039-0.016-0.074-0.038-0.106-0.063c-0.094,0.277-0.186,0.555-0.278,0.835   c3.747-3.838,8.281-4.385,11.322-4.751c0.908-0.109,1.692-0.204,2.254-0.364c2.154-0.616,4.24-1.784,6.043-3.36   c-0.974,0.348-2.12,0.678-3.237,0.828c-1.531,0.201-3.048,0.183-4.513,0.166c-2.648-0.032-5.163-0.061-6.955,1.307   c-1.579,1.175-2.989,3.465-3.895,5.179C47.23,36.53,46.955,36.629,46.718,36.524z"/><path fill="none" d="M41.152,24.693c-1.028-1.881-2.06-3.772-2.024-6.707c-1.064,3.763-1.763,9.621,1.641,14.065   c1.779,2.492,2.762,5.211,3.305,7.481c0.09-1.727,0.121-3.208,0.095-4.424C44.078,29.84,42.59,27.223,41.152,24.693z"/><path fill="none" d="M58.203,39.245c2.436-0.363,4.952-2.505,6.584-4.134c-3.056,1.279-5.306,1.378-7.833,1.49   c-1.584,0.071-3.223,0.143-5.265,0.509c-2.212,0.353-4.988,5.194-6.674,9.077C47.655,43.336,52.003,39.971,58.203,39.245z"/><path fill="none" d="M48.46,25.915c0.576-4.223-0.474-6.437-1.489-8.58c-0.846-1.784-1.658-3.498-1.375-6.11   c-1.289,3.05-2.425,7.843,0.183,11.85c1.277,2.112,1.894,4.369,2.17,6.352C48.187,28.06,48.359,26.882,48.46,25.915z"/><path d="M75.208,5.003c-2.315-0.076-7.072,1.191-11.305,3.723c-4.343,2.466-7.623,5.849-8.739,7.278   c-1.798,2.112-3.303,5.917-4.056,8.051c-0.027,0.035-0.052,0.071-0.076,0.113c-0.61,1.054-1.201,2.156-1.768,3.297   c0.073-0.52,0.133-0.998,0.178-1.433c0.614-4.498-0.551-6.954-1.577-9.12c-1.136-2.397-2.117-4.466-0.423-8.928   c0.068-0.181,0.026-0.383-0.109-0.522c-0.177-0.182-0.5-0.187-0.698-0.027c-0.525,0.421-6.171,9.284-1.693,16.165   c1.791,2.964,2.196,6.269,2.216,8.554c-0.734,1.814-1.402,3.681-2.02,5.637c0.032-1.006,0.039-1.909,0.021-2.702   c-0.096-5.519-1.646-8.246-3.177-10.939c-1.375-2.52-2.675-4.899-1.246-10.098c0.051-0.186-0.011-0.384-0.157-0.509   c-0.194-0.164-0.51-0.141-0.692,0.033c-0.506,0.482-5.663,11.557,0.088,19.062c2.677,3.752,3.462,8.082,3.69,10.384   C43.262,44.63,42.89,46.279,42.543,48c-0.208-3.747-0.669-7.519-1.745-9.212c-1.057-1.509-2.107-2.695-3.035-3.741   c-2.528-2.854-4.525-5.108-4.976-11.976c-0.015-0.216-0.168-0.399-0.38-0.448c-0.208-0.05-0.433,0.049-0.545,0.229   c-0.376,0.605-2.25,10.32,1.134,14.417c4.704,6.143,7.097,12.437,8.49,16.674c-0.256,1.631-0.489,3.256-0.701,4.866   c-0.042,0.321-0.083,0.641-0.123,0.961c-0.175-1.609-0.384-3.125-0.627-4.208c-0.999-4.533-3.145-7.793-5.22-10.948   c-2.677-4.068-5.205-7.91-4.978-14.098h-0.006c-0.013-0.228-0.167-0.457-0.388-0.503c-0.143-0.029-0.291,0.006-0.406,0.096   c-0.115,0.09-0.183,0.226-0.189,0.371c0,0.005,0,0.01,0,0.015h-0.002c-0.115,1.002-0.455,4.609-0.043,8.961   c0.248,2.903,1.217,10.224,4.838,15.492c3.992,5.813,5.623,9.613,6.251,11.414l-0.293,2.667c-0.107,0.984-0.214,1.966-0.323,2.95   c-0.087-0.381-0.175-0.784-0.261-1.208c-0.615-2.936-3.054-6.266-5.206-9.204c-0.922-1.258-1.793-2.447-2.446-3.502   c-1.093-1.753-2.879-6.172-3.982-10.536c-1.011-3.826-1.602-8.02-1.437-10.199c0.019-0.266-0.174-0.499-0.438-0.529   C25.23,36.776,25,36.954,24.96,37.217c-0.571,3.883-0.764,7.609-0.572,11.069c0.244,5.92,1.848,13.666,5.614,17.654   c5.557,5.797,7.904,8.305,8.892,9.387c-0.619,5.294-1.46,11.577-2.979,18.233c-0.107,0.506-0.028,0.946,0.218,1.205   C36.279,94.917,36.471,95,36.677,95c0.04,0,0.079-0.004,0.12-0.01c0.565-0.087,0.996-0.757,1.129-1.371   c1.061-4.728,1.859-9.574,2.587-15.702c1.071-1.672,3.422-4.189,8.55-6.845c3.806-1.88,6.819-6.06,9.266-9.906   c2.501-4.036,3.432-5.815,3.733-6.636c0.028-0.039,0.057-0.078,0.085-0.117l-0.036-0.026c0.146-0.458,0.051-0.548-0.028-0.622   c-0.105-0.099-0.248-0.142-0.387-0.132c-0.142,0.014-0.271,0.089-0.354,0.205c-1.779,2.491-5.296,5.072-8.696,7.568l-0.98,0.721   c-2.061,1.484-6.998,5.086-8.352,6.49c-0.643,0.726-1.392,2.135-2.236,4.205c0.131-1.25,0.259-2.501,0.386-3.753l0.17-1.67   c1.113-1.893,3.739-5.28,9.086-7.386c4.024-1.645,8.022-5.18,11.882-10.505l0.233-0.318c0-0.001,0.001-0.001,0.001-0.002v0   c0.003-0.004,0.005-0.007,0.007-0.01c0.013-0.013,0.026-0.026,0.038-0.041l0.111-0.132c0.109-0.139,0.135-0.326,0.07-0.49   c-0.066-0.163-0.213-0.28-0.389-0.305c-0.292-0.044-0.459,0.159-0.612,0.365c0,0-0.001,0-0.001,0.001   c-1.941,2.321-4.543,3.015-7.298,3.75c-3.378,0.902-6.871,1.835-9.754,5.682c-0.896,1.201-2.05,3.58-2.981,5.663   c0.161-1.49,0.334-3.023,0.525-4.572l0.053-0.409c0.622-1.03,2.899-4.139,8.73-6.392c5.732-2.333,10.608-7.68,12.443-9.693   l0.314-0.342c0.122-0.113,0.243-0.226,0.361-0.349c0.116-0.121,0.162-0.29,0.125-0.452c-0.037-0.162-0.153-0.296-0.308-0.354   c-0.333-0.127-0.53,0.079-0.875,0.451c-2.074,1.912-4.633,2.33-7.341,2.772c-3.431,0.56-6.978,1.14-10.012,4.695   c-0.936,1.095-1.987,3.257-2.823,5.198c0.288-1.917,0.594-3.718,0.922-5.443c2.593-3.469,7.144-7.732,14.197-8.557   c3.712-0.554,7.261-4.469,8.598-5.942c0.195-0.215,0.328-0.366,0.389-0.418c0.202-0.16,0.247-0.447,0.104-0.662   c-0.142-0.215-0.425-0.281-0.65-0.159c-4.21,2.319-6.83,2.435-9.865,2.569c-1.542,0.069-3.29,0.146-5.386,0.522   c-2.292,0.367-4.598,3.986-6.173,7.067c0.411-1.663,0.856-3.269,1.341-4.843c3.569-3.926,8.086-4.471,11.082-4.832   c0.948-0.114,1.768-0.213,2.407-0.394c3.044-0.872,5.954-2.77,8.194-5.343l0.07-0.079c0.143-0.128,0.201-0.329,0.141-0.517   c-0.07-0.217-0.256-0.374-0.505-0.345c-0.099,0.007-0.173,0.035-0.238,0.08c-0.504,0.297-2.982,1.433-5.257,1.74   c-1.459,0.191-2.938,0.176-4.372,0.157c-2.83-0.036-5.505-0.065-7.563,1.506c-0.588,0.438-1.15,1.009-1.674,1.643   c0.473-1.148,0.972-2.264,1.49-3.341c0.844-0.795,3.605-3.031,7.503-2.717c0.004,0.001,0.007,0.001,0.011,0.001   c3.967,0.234,7.953-1.156,11.843-4.117c0.13-0.099,0.222-0.17,0.276-0.206c0.22-0.143,0.29-0.434,0.158-0.662   c-0.131-0.229-0.421-0.313-0.652-0.193c-2.727,1.384-4.726,1.154-6.842,0.912c-2.502-0.286-5.088-0.584-8.837,1.808   c-0.042,0.03-0.086,0.06-0.129,0.09c1.965-2.203,4.604-4.984,6.106-6.483c0.969-1.158,4.318-4.711,8.147-7.215   c3.079-2.142,6.341-3.507,7.267-3.874c0.206-0.081,0.384-0.31,0.363-0.529C75.657,5.203,75.455,5.013,75.208,5.003z M30.719,65.257   c-3.577-3.787-5.105-11.271-5.343-17.019c-0.096-1.731-0.094-3.528,0.005-5.379c0.257,1.592,0.612,3.289,1.042,4.914   c1.167,4.621,2.984,9.019,4.099,10.812c0.673,1.087,1.555,2.29,2.489,3.564c2.093,2.858,4.465,6.096,5.035,8.82   c0.204,1,0.412,1.889,0.625,2.657C37.343,72.201,34.966,69.688,30.719,65.257z M39.637,77.451c0.02-0.168,0.042-0.335,0.061-0.502   c0.033,0.073,0.082,0.138,0.145,0.188C39.769,77.244,39.701,77.348,39.637,77.451z M39.855,74.94   c-0.003-0.007-0.007-0.013-0.01-0.019c0.005-0.006,0.01-0.012,0.013-0.016C39.858,74.915,39.857,74.927,39.855,74.94z    M44.037,69.288c0.891-0.922,3.958-3.299,8.209-6.362l0.982-0.722c2.194-1.61,4.436-3.256,6.261-4.911   c-0.567,0.988-1.245,2.134-1.998,3.349c-2.371,3.726-5.278,7.773-8.876,9.549c-3.751,1.944-6.086,3.837-7.536,5.408   C42.252,72.326,43.272,70.154,44.037,69.288z M34.456,54.387c-3.487-5.073-4.427-12.192-4.668-15.021   c-0.084-0.889-0.136-1.744-0.165-2.552c0.948,3.148,2.626,5.699,4.366,8.344c2.026,3.079,4.121,6.262,5.08,10.618   c0.447,1.989,0.779,5.524,0.986,8.323C39.109,61.945,37.421,58.704,34.456,54.387z M40.789,65.933   c-0.09-0.254-0.198-0.544-0.328-0.869c0.038,0.01,0.076,0.015,0.116,0.016c0.14-0.008,0.226-0.037,0.312-0.102   C40.855,65.299,40.822,65.617,40.789,65.933z M45.796,58.601c2.677-3.572,6.002-4.459,9.217-5.318   c1.614-0.431,3.179-0.849,4.617-1.572c-3.06,3.635-6.173,6.114-9.281,7.385c-3.433,1.351-5.804,3.216-7.397,4.92   C43.854,61.999,44.956,59.728,45.796,58.601z M33.77,36.654c-1.993-2.416-1.934-7.062-1.585-10.186   c0.83,4.71,2.643,6.758,4.838,9.235c0.953,1.077,1.939,2.19,2.953,3.634c1.369,2.154,1.636,8.796,1.712,12.148   C40.197,47.345,37.83,41.955,33.77,36.654z M42.343,53.384c-0.032-0.098-0.066-0.197-0.099-0.297   c0.053-0.004,0.104-0.016,0.152-0.037C42.378,53.161,42.361,53.273,42.343,53.384z M46.79,49.668   c2.799-3.279,6.165-3.829,9.42-4.36c1.57-0.256,3.171-0.518,4.683-1.094c-2.364,2.38-5.951,5.547-9.926,7.165   c-3.623,1.399-5.942,3.108-7.388,4.537C44.537,53.561,45.79,50.84,46.79,49.668z M44.074,39.532   c-0.543-2.271-1.526-4.99-3.305-7.481c-3.404-4.444-2.705-10.302-1.641-14.065c-0.036,2.935,0.997,4.825,2.024,6.707   c1.438,2.531,2.925,5.147,3.016,10.416C44.195,36.324,44.164,37.805,44.074,39.532z M51.69,37.111   c2.042-0.366,3.681-0.438,5.265-0.509c2.527-0.112,4.777-0.211,7.833-1.49c-1.632,1.628-4.148,3.771-6.584,4.134   c-6.201,0.726-10.548,4.091-13.188,6.942C46.702,42.305,49.478,37.464,51.69,37.111z M45.778,23.075   c-2.608-4.007-1.472-8.8-0.183-11.85c-0.283,2.612,0.529,4.326,1.375,6.11c1.015,2.142,2.065,4.357,1.489,8.58   c-0.1,0.968-0.272,2.145-0.512,3.513C47.672,27.444,47.055,25.187,45.778,23.075z M51.247,31.122   c1.792-1.368,4.307-1.339,6.955-1.307c1.465,0.016,2.982,0.035,4.513-0.166c1.117-0.15,2.264-0.48,3.237-0.828   c-1.803,1.576-3.89,2.744-6.043,3.36c-0.562,0.16-1.346,0.255-2.254,0.364c-3.041,0.366-7.574,0.913-11.322,4.751   c0.092-0.28,0.184-0.558,0.278-0.835c0.032,0.025,0.068,0.046,0.106,0.063c0.237,0.104,0.512,0.006,0.634-0.223   C48.258,34.588,49.668,32.298,51.247,31.122z M54.474,24.286c2.296-1.467,4.086-1.836,5.747-1.836c0.827,0,1.622,0.092,2.431,0.184   c1.263,0.145,2.551,0.295,4,0.091c-2.862,1.63-5.752,2.378-8.609,2.206c-2.237-0.177-4.138,0.402-5.571,1.123   C53.085,25.409,53.779,24.76,54.474,24.286z M67.499,9.033c-3.918,2.562-7.359,6.211-8.323,7.367   c-1.698,1.692-4.908,5.088-6.94,7.439c0.696-1.897,2.094-5.332,3.693-7.21c1.262-1.617,4.558-4.826,8.47-7.049   c2.552-1.526,5.272-2.579,7.486-3.133C70.571,7.11,69.012,7.98,67.499,9.033z"/></g></svg>